<?xml version="1.0" encoding="UTF-8" standalone="no"?>
<!-- Created with Inkscape (http://www.inkscape.org/) -->

<svg
   width="201.92543mm"
   height="201.92543mm"
   viewBox="0 0 201.92543 201.92543"
   version="1.1"
   id="svg1"
   xml:space="preserve"
   inkscape:version="1.4.2 (f4327f4, 2025-05-13)"
   sodipodi:docname="favicon.svg"
   xmlns:inkscape="http://www.inkscape.org/namespaces/inkscape"
   xmlns:sodipodi="http://sodipodi.sourceforge.net/DTD/sodipodi-0.dtd"
   xmlns="http://www.w3.org/2000/svg"
   xmlns:svg="http://www.w3.org/2000/svg"><sodipodi:namedview
     id="namedview1"
     pagecolor="#ffffff"
     bordercolor="#000000"
     borderopacity="0.25"
     inkscape:showpageshadow="2"
     inkscape:pageopacity="0.0"
     inkscape:pagecheckerboard="0"
     inkscape:deskcolor="#d1d1d1"
     inkscape:document-units="mm"
     inkscape:zoom="1.6810396"
     inkscape:cx="162.39951"
     inkscape:cy="368.52196"
     inkscape:window-width="3840"
     inkscape:window-height="2126"
     inkscape:window-x="-11"
     inkscape:window-y="-11"
     inkscape:window-maximized="1"
     inkscape:current-layer="layer1" /><defs
     id="defs1" /><g
     inkscape:label="Layer 1"
     inkscape:groupmode="layer"
     id="layer1"
     transform="translate(-2.6901513,-2.0290287)"><g
       id="g3"
       transform="matrix(9.3161944,0,0,9.3161944,-859.29885,-904.26947)"><path
         style="fill:#f2f2f2"
         d="m 102.72042,117.81372 -0.13869,-0.21167 0.13869,-0.21167 0.13869,-0.21166 h 0.25386 0.25386 l 0.0965,0.21166 0.0964,0.21167 -0.0964,0.21167 -0.0965,0.21166 h -0.25386 -0.25386 z m 1.71919,0.0414 -0.21643,-0.17024 -0.1438,-0.37654 -0.1438,-0.37654 0.0603,-0.40237 0.0603,-0.40238 0.32084,-0.32084 0.32085,-0.32085 h 0.37212 0.37212 l 0.19425,0.13606 0.19426,0.13606 0.0686,0.18144 0.0686,0.18144 -0.0776,0.14817 -0.0776,0.14817 h -0.19176 -0.19175 l -0.1016,-0.1016 -0.1016,-0.1016 v -0.18437 -0.18437 l -0.11937,-0.0991 -0.11937,-0.0991 -0.13463,0.19221 -0.13463,0.19221 1.3e-4,0.42566 1.3e-4,0.42566 0.14804,0.29462 0.14803,0.29462 0.22847,0.1267 0.22846,0.1267 0.26618,-0.19679 0.26618,-0.19679 -0.0296,0.15349 -0.0296,0.1535 -0.28711,0.19348 -0.2871,0.19347 h -0.35706 -0.35706 z m 3.76435,-0.0257 -0.18409,-0.19596 v -0.87688 -0.87687 l -0.14012,-0.15484 -0.14012,-0.15483 h 0.51851 0.51852 l 0.0238,1.03025 0.0238,1.03025 0.10055,0.0334 0.10054,0.0334 0.17462,-0.17463 0.17463,-0.17462 v -0.73417 -0.73416 l -0.14013,-0.15484 -0.14012,-0.15483 h 0.52112 0.52113 v 1.09646 1.09646 l 0.14816,0.0863 0.14817,0.0863 -0.52917,0.003 -0.52916,0.003 v -0.13315 -0.13314 l -0.22309,0.17547 -0.22308,0.17548 h -0.27016 -0.27016 z m 2.60991,-1.49317 v -1.68913 l -0.14817,-0.0863 -0.14816,-0.0863 0.52916,-0.003 0.52917,-0.003 v 0.6398 0.63981 l 0.18817,-0.13181 0.18817,-0.1318 h 0.30747 0.30746 l 0.2249,0.20843 0.22489,0.20842 0.0838,0.22042 0.0838,0.22042 v 0.33588 0.33587 l -0.11549,0.2764 -0.11549,0.2764 -0.27201,0.22888 -0.27201,0.22888 h -0.35832 -0.35832 l -0.16211,-0.11854 -0.16212,-0.11854 -0.16924,0.11854 -0.16924,0.11854 h -0.10816 -0.10816 z m 1.40424,1.30895 0.13815,-0.21083 0.006,-0.61467 0.006,-0.61466 -0.0612,-0.18268 -0.0612,-0.18268 -0.13571,-0.0521 -0.13571,-0.0521 -0.19973,0.13087 -0.19974,0.13088 v 0.74121 0.74121 l 0.1318,0.18817 0.1318,0.18817 h 0.12025 0.12025 z m -5.87041,0.20406 0.14817,-0.0863 v -1.55792 -1.55792 l -0.14817,-0.0863 -0.14816,-0.0863 0.52403,-0.003 0.52404,-0.003 0.0263,1.61565 0.0263,1.61565 0.16435,0.12002 0.16435,0.12002 -0.71468,-0.003 -0.71468,-0.003 z"
         id="path5" /><path
         style="fill:#f60000"
         d="m 93.568451,113.62487 0.238246,-0.0751 0.121587,-0.10091 0.121587,-0.10091 v -2.0536 -2.0536 l -0.121587,-0.1009 -0.121587,-0.10091 -0.238246,-0.0751 -0.238246,-0.0751 1.608666,0.0174 1.608667,0.0174 0.381,0.17739 0.381,0.17739 0.275618,0.28364 0.275618,0.28365 0.188541,0.38563 0.188542,0.38563 -0.0021,0.67733 -0.0021,0.67734 -0.173225,0.38195 -0.173225,0.38195 -0.28792,0.28792 -0.28792,0.28792 -0.38195,0.17679 -0.38195,0.1768 -1.608667,0.0175 -1.608666,0.0174 z m 2.733307,-0.39633 0.195131,-0.12785 0.194658,-0.39515 0.194657,-0.39516 v -0.97592 -0.97593 l -0.212191,-0.41233 -0.212191,-0.41232 -0.211142,-0.15216 -0.211142,-0.15215 -0.402167,-0.0567 -0.402167,-0.0567 v 2.07974 2.07974 l 0.148167,0.0893 0.148167,0.0893 0.287545,-0.0489 0.287544,-0.0489 z m 2.616446,0.36379 0.338667,-0.10204 v -2.19591 -2.1959 l -0.338667,-0.10204 -0.338666,-0.10204 2.095502,-0.007 2.0955,-0.007 v 0.71967 0.71967 h -0.11642 -0.11642 l -0.047,-0.23508 -0.047,-0.23508 -0.17304,-0.21999 -0.17303,-0.21998 -0.37836,-0.0953 -0.37835,-0.0953 h -0.38584 -0.38585 v 0.98285 0.98284 l 0.23284,-0.0547 0.23283,-0.0547 0.18673,-0.20881 0.18672,-0.20881 0.0555,-0.296 0.0555,-0.296 h 0.0752 0.0752 v 1.22766 1.22767 h -0.0752 -0.0752 l -0.0555,-0.296 -0.0555,-0.296 -0.18672,-0.2036 -0.18673,-0.2036 -0.23283,-0.0524 -0.23284,-0.0523 v 0.92996 0.92997 l 0.16377,0.0876 0.16377,0.0876 h 0.26441 0.2644 l 0.37516,-0.0945 0.37516,-0.0945 0.29519,-0.32673 0.29518,-0.32673 0.0537,-0.21381 0.0537,-0.2138 h 0.12353 0.12352 l -0.0419,0.14817 -0.0419,0.14817 -0.0546,0.46566 -0.0546,0.46567 -0.0419,0.14817 -0.0419,0.14816 -2.13212,-0.007 -2.132132,-0.007 z m 4.685246,-0.0579 0.28257,-0.17228 0.44258,-0.94923 0.44257,-0.94924 0.58718,-1.33077 0.58719,-1.33076 0.0764,0.0227 0.0764,0.0227 0.96147,2.19703 0.96147,2.19704 0.27127,0.23283 0.27128,0.23283 -1.22447,-0.009 -1.22447,-0.009 0.3175,-0.0843 0.3175,-0.0843 v -0.11106 -0.11105 l -0.18216,-0.47602 -0.18217,-0.47602 -0.85253,0.024 -0.85254,0.024 -0.15097,0.4071 -0.15097,0.40711 0.088,0.16439 0.088,0.1644 0.14518,10e-4 0.14519,0.001 0.127,0.0821 0.127,0.0821 -0.889,9.8e-4 -0.889,9.8e-4 z m 2.41554,-2.00725 -0.22074,-0.48684 -0.0931,-0.23283 -0.0931,-0.23283 h -0.0543 -0.0543 l -0.30812,0.67405 -0.30812,0.67404 v 0.0456 0.0456 h 0.67627 0.67627 z m 2.87413,2.09765 0.23824,-0.0751 0.12159,-0.10091 0.12159,-0.10091 v -2.0536 -2.0536 l -0.12159,-0.1009 -0.12159,-0.10091 -0.23824,-0.0751 -0.23825,-0.0751 1.60867,0.0174 1.60866,0.0174 0.381,0.17739 0.381,0.17739 0.27562,0.28364 0.27562,0.28365 0.18854,0.38563 0.18854,0.38563 -0.002,0.67733 -0.002,0.67734 -0.17322,0.38195 -0.17323,0.38195 -0.28792,0.28792 -0.28792,0.28792 -0.38195,0.17679 -0.38195,0.1768 -1.60866,0.0175 -1.60867,0.0174 z m 2.7333,-0.39633 0.19513,-0.12785 0.19466,-0.39515 0.19466,-0.39516 v -0.97592 -0.97593 l -0.21219,-0.41233 -0.21219,-0.41232 -0.21114,-0.15216 -0.21115,-0.15215 -0.40216,-0.0567 -0.40217,-0.0567 v 2.07974 2.07974 l 0.14817,0.0893 0.14816,0.0893 0.28755,-0.0489 0.28754,-0.0489 z m -18.057969,-4.93767 0.238246,-0.0751 0.121587,-0.10091 0.121587,-0.10091 v -2.0536 -2.0536 l -0.121587,-0.1009 -0.121587,-0.10091 -0.238246,-0.0751 -0.238246,-0.0751 1.608666,0.0174 1.608667,0.0174 0.381,0.17739 0.381,0.17739 0.275618,0.28364 0.275618,0.28365 0.188541,0.38563 0.188542,0.38563 -0.0021,0.67733 -0.0021,0.67734 -0.173225,0.38195 -0.173225,0.38195 -0.28792,0.28792 -0.28792,0.28792 -0.38195,0.17679 -0.38195,0.1768 -1.608667,0.0174 -1.608666,0.0174 z m 2.733307,-0.39632 0.195131,-0.12786 0.194658,-0.39515 0.194657,-0.39516 v -0.97592 -0.97593 l -0.212191,-0.41233 -0.212191,-0.41232 -0.211142,-0.15216 -0.211142,-0.15215 -0.402167,-0.0567 -0.402167,-0.0567 v 2.07974 2.07974 l 0.148167,0.0893 0.148167,0.0893 0.287545,-0.0489 0.287544,-0.0489 z m 2.616446,0.36378 0.338667,-0.10204 v -2.19591 -2.1959 l -0.338667,-0.10204 -0.338666,-0.10204 2.095502,-0.007 2.0955,-0.007 v 0.71967 0.71967 h -0.11642 -0.11642 l -0.047,-0.23508 -0.047,-0.23508 -0.17304,-0.21999 -0.17303,-0.21998 -0.37836,-0.0953 -0.37835,-0.0953 h -0.38584 -0.38585 v 0.98285 0.98284 l 0.23284,-0.0547 0.23283,-0.0547 0.18673,-0.20881 0.18672,-0.20881 0.0555,-0.296 0.0555,-0.296 h 0.0752 0.0752 v 1.22766 1.22767 h -0.0752 -0.0752 l -0.0555,-0.296 -0.0555,-0.296 -0.18672,-0.2036 -0.18673,-0.2036 -0.23283,-0.0524 -0.23284,-0.0523 v 0.92997 0.92996 l 0.16377,0.0876 0.16377,0.0876 h 0.26441 0.2644 l 0.37516,-0.0945 0.37516,-0.0945 0.29519,-0.32673 0.29518,-0.32673 0.0537,-0.2138 0.0537,-0.21381 h 0.12353 0.12352 l -0.0419,0.14817 -0.0419,0.14817 -0.0546,0.46566 -0.0546,0.46567 -0.0419,0.14817 -0.0419,0.14816 -2.13212,-0.007 -2.132132,-0.007 z m 4.685246,-0.0579 0.28257,-0.17227 0.44258,-0.94924 0.44257,-0.94924 0.58718,-1.33077 0.58719,-1.33076 0.0764,0.0227 0.0764,0.0227 0.96147,2.19703 0.96147,2.19704 0.27127,0.23283 0.27128,0.23283 -1.22447,-0.009 -1.22447,-0.009 0.3175,-0.0843 0.3175,-0.0843 v -0.11106 -0.11105 l -0.18216,-0.47602 -0.18217,-0.47602 -0.85253,0.024 -0.85254,0.024 -0.15097,0.4071 -0.15097,0.40711 0.088,0.16439 0.088,0.1644 0.14518,0.001 0.14519,10e-4 0.127,0.0821 0.127,0.0821 -0.889,9.8e-4 -0.889,9.8e-4 z m 2.41554,-2.00725 -0.22074,-0.48684 -0.0931,-0.23283 -0.0931,-0.23283 h -0.0543 -0.0543 l -0.30812,0.67405 -0.30812,0.67404 v 0.0456 0.0456 h 0.67627 0.67627 z m 2.87413,2.09765 0.23824,-0.0751 0.12159,-0.10091 0.12159,-0.10091 v -2.0536 -2.0536 l -0.12159,-0.1009 -0.12159,-0.10091 -0.23824,-0.0751 -0.23825,-0.0751 1.60867,0.0174 1.60866,0.0174 0.381,0.17739 0.381,0.17739 0.27562,0.28364 0.27562,0.28365 0.18854,0.38563 0.18854,0.38563 -0.002,0.67733 -0.002,0.67734 -0.17322,0.38195 -0.17323,0.38195 -0.28792,0.28792 -0.28792,0.28792 -0.38195,0.17679 -0.38195,0.1768 -1.60866,0.0174 -1.60867,0.0174 z m 2.7333,-0.39632 0.19513,-0.12786 0.19466,-0.39515 0.19466,-0.39516 v -0.97592 -0.97593 l -0.21219,-0.41233 -0.21219,-0.41232 -0.21114,-0.15216 -0.21115,-0.15215 -0.40216,-0.0567 -0.40217,-0.0567 v 2.07974 2.07974 l 0.14817,0.0893 0.14816,0.0893 0.28755,-0.0489 0.28754,-0.0489 z m -18.227302,-4.93768 0.238246,-0.0751 0.121587,-0.10091 0.121587,-0.10091 v -2.0536 -2.053595 l -0.121587,-0.100908 -0.121587,-0.100909 -0.238246,-0.07507 -0.238247,-0.07507 1.608667,0.01745 1.608666,0.01744 0.381,0.17739 0.381,0.17739 0.275619,0.283645 0.275618,0.283644 0.188541,0.385632 0.188542,0.385632 -0.0021,0.677329 -0.0021,0.67734 -0.173225,0.38195 -0.173225,0.38195 -0.28792,0.28792 -0.28792,0.28792 -0.38195,0.17679 -0.381951,0.1768 -1.608666,0.0174 -1.608667,0.0174 z m 2.733307,-0.39632 0.195131,-0.12786 0.194657,-0.39515 0.194658,-0.39516 v -0.97592 -0.975929 L 96.50468,99.278123 96.292489,98.865796 96.081347,98.713643 95.870204,98.56149 95.468038,98.50478 95.065871,98.44807 v 2.07974 2.07974 l 0.148167,0.0893 0.148166,0.0893 0.287545,-0.0489 0.287545,-0.0489 z m 2.616446,0.36378 0.338667,-0.10204 v -2.19591 -2.195904 l -0.338667,-0.102039 -0.338667,-0.102039 2.095496,-0.0065 2.0955,-0.0065 v 0.719667 0.719667 h -0.11641 -0.11642 l -0.047,-0.235081 -0.047,-0.235081 -0.17304,-0.219981 -0.17304,-0.219982 -0.37835,-0.09527 -0.37836,-0.09527 h -0.38584 -0.38584 v 0.982845 0.982848 l 0.23283,-0.0547 0.23284,-0.0547 0.18672,-0.20881 0.18673,-0.208818 0.0555,-0.295999 0.0555,-0.295999 h 0.0752 0.0752 v 1.227666 1.22767 h -0.0752 -0.0752 l -0.0555,-0.296 -0.0555,-0.296 -0.18673,-0.2036 -0.18672,-0.2036 -0.23284,-0.0524 -0.23283,-0.0523 v 0.92997 0.92996 l 0.16377,0.0876 0.16377,0.0876 h 0.2644 0.26441 l 0.37516,-0.0945 0.37516,-0.0945 0.29518,-0.32673 0.29519,-0.32673 0.0537,-0.2138 0.0537,-0.21381 h 0.12352 0.12353 l -0.0419,0.14817 -0.0419,0.14817 -0.0546,0.46566 -0.0546,0.46567 -0.0419,0.14817 -0.0419,0.14816 -2.13213,-0.006 -2.132126,-0.007 z m 4.685239,-0.0579 0.28258,-0.17227 0.44257,-0.94924 0.44258,-0.94924 0.58718,-1.330768 0.58718,-1.330765 0.0764,0.02273 0.0764,0.02273 0.96147,2.197033 0.96147,2.19704 0.27127,0.23283 0.27127,0.23283 -1.22446,-0.009 -1.22447,-0.009 0.3175,-0.0843 0.3175,-0.0843 v -0.11106 -0.11105 l -0.18217,-0.47602 -0.18216,-0.47602 -0.85253,0.024 -0.85254,0.024 -0.15097,0.4071 -0.15097,0.40711 0.088,0.16439 0.088,0.1644 0.14519,10e-4 0.14519,0.001 0.127,0.0821 0.127,0.0821 -0.889,9.8e-4 -0.889,9.8e-4 z m 2.41555,-2.00725 -0.22074,-0.48684 -0.0931,-0.23283 -0.0931,-0.232832 h -0.0543 -0.0543 l -0.30811,0.674052 -0.30812,0.67404 v 0.0456 0.0456 h 0.67627 0.67626 z m 2.87412,2.09765 0.23825,-0.0751 0.12159,-0.10091 0.12158,-0.10091 v -2.0536 -2.053595 l -0.12158,-0.100908 -0.12159,-0.100909 -0.23825,-0.07507 -0.23824,-0.07507 1.60866,0.01745 1.60867,0.01744 0.381,0.17739 0.381,0.17739 0.27562,0.283645 0.27562,0.283644 0.18854,0.385632 0.18854,0.385632 -0.002,0.677329 -0.002,0.67734 -0.17322,0.38195 -0.17323,0.38195 -0.28792,0.28792 -0.28792,0.28792 -0.38195,0.17679 -0.38195,0.1768 -1.60867,0.0174 -1.60866,0.0174 z m 2.73331,-0.39632 0.19513,-0.12786 0.19466,-0.39515 0.19466,-0.39516 v -0.97592 -0.975929 l -0.21219,-0.412328 -0.2122,-0.412327 -0.21114,-0.152153 -0.21114,-0.152153 -0.40217,-0.05671 -0.40216,-0.05671 v 2.07974 2.07974 l 0.14816,0.0893 0.14817,0.0893 0.28755,-0.0489 0.28754,-0.0489 z"
         id="path4" /><path
         style="fill:#010000"
         d="M 92.525871,108.11938 V 97.282051 h 10.837329 10.83734 v 10.837329 10.83734 H 103.3632 92.525871 Z m 10.937409,9.69434 0.0964,-0.21167 -0.0964,-0.21167 -0.0965,-0.21166 h -0.25386 -0.25386 l -0.13869,0.21166 -0.13869,0.21167 0.13869,0.21167 0.13869,0.21166 h 0.25386 0.25386 z m 2.19398,0.0182 0.28711,-0.19348 0.0296,-0.1535 0.0296,-0.15349 -0.26618,0.19679 -0.26618,0.19679 -0.22846,-0.1267 -0.22847,-0.1267 -0.14803,-0.29462 -0.14804,-0.29462 -1.3e-4,-0.42566 -1.3e-4,-0.42566 0.13463,-0.19221 0.13463,-0.19221 0.11937,0.0991 0.11937,0.0991 v 0.18437 0.18437 l 0.1016,0.1016 0.1016,0.1016 h 0.19175 0.19176 l 0.0776,-0.14817 0.0776,-0.14817 -0.0686,-0.18144 -0.0686,-0.18144 -0.19426,-0.13606 -0.19425,-0.13606 h -0.37212 -0.37212 l -0.32085,0.32085 -0.32084,0.32084 -0.0603,0.40238 -0.0603,0.40237 0.1438,0.37654 0.1438,0.37654 0.21643,0.17024 0.21643,0.17024 h 0.35706 0.35706 z m 3.49419,0.018 0.22309,-0.17547 v 0.13314 0.13315 l 0.52916,-0.003 0.52917,-0.003 -0.14817,-0.0863 -0.14816,-0.0863 v -1.09646 -1.09646 h -0.52113 -0.52112 l 0.14012,0.15483 0.14013,0.15484 v 0.73416 0.73417 l -0.17463,0.17462 -0.17462,0.17463 -0.10054,-0.0334 -0.10055,-0.0334 -0.0238,-1.03025 -0.0238,-1.03025 h -0.51852 -0.51851 l 0.14012,0.15483 0.14012,0.15484 v 0.87687 0.87688 l 0.18409,0.19596 0.18409,0.19595 h 0.27016 0.27016 z m 2.04798,0.0569 0.16924,-0.11854 0.16212,0.11854 0.16211,0.11854 h 0.35832 0.35832 l 0.27201,-0.22888 0.27201,-0.22888 0.11549,-0.2764 0.11549,-0.2764 v -0.33587 -0.33588 l -0.0838,-0.22042 -0.0838,-0.22042 -0.22489,-0.20842 -0.2249,-0.20843 h -0.30746 -0.30747 l -0.18817,0.1318 -0.18817,0.13181 v -0.63981 -0.6398 l -0.52917,0.003 -0.52916,0.003 0.14816,0.0863 0.14817,0.0863 v 1.68913 1.68912 h 0.10816 0.10816 z m 0.50824,-0.23896 -0.1318,-0.18817 v -0.74121 -0.74121 l 0.19974,-0.13088 0.19973,-0.13087 0.13571,0.0521 0.13571,0.0521 0.0612,0.18268 0.0612,0.18268 -0.006,0.61466 -0.006,0.61467 -0.13815,0.21083 -0.13814,0.21084 h -0.12025 -0.12025 z m -4.24312,0.15282 -0.16435,-0.12002 -0.0263,-1.61565 -0.0263,-1.61565 -0.52404,0.003 -0.52403,0.003 0.14816,0.0863 0.14817,0.0863 v 1.55792 1.55792 l -0.14817,0.0863 -0.14816,0.0863 0.71468,0.003 0.71468,0.003 z m -10.535062,-4.33245 0.38195,-0.17679 0.28792,-0.28792 0.28792,-0.28792 0.173225,-0.38195 0.173225,-0.38195 0.0021,-0.67734 0.0021,-0.67733 -0.188542,-0.38563 -0.188541,-0.38563 -0.275618,-0.28365 -0.275618,-0.28364 -0.381,-0.17739 -0.381,-0.17739 -1.608667,-0.0174 -1.608666,-0.0174 0.238246,0.0751 0.238246,0.0751 0.121587,0.10091 0.121587,0.1009 v 2.0536 2.0536 l -0.121587,0.10091 -0.121587,0.10091 -0.238246,0.0751 -0.238246,0.0751 1.608666,-0.0174 1.608667,-0.0175 z m -1.546117,-0.12332 -0.148167,-0.0893 v -2.07974 -2.07974 l 0.402167,0.0567 0.402167,0.0567 0.211142,0.15215 0.211142,0.15216 0.212191,0.41232 0.212191,0.41233 v 0.97593 0.97592 l -0.194657,0.39516 -0.194658,0.39515 -0.195131,0.12785 -0.195131,0.12786 -0.287544,0.0489 -0.287545,0.0489 z m 7.502339,0.19429 0.0419,-0.14817 0.0546,-0.46567 0.0546,-0.46566 0.0419,-0.14817 0.0419,-0.14817 h -0.12352 -0.12353 l -0.0537,0.2138 -0.0537,0.21381 -0.29518,0.32673 -0.29519,0.32673 -0.37516,0.0945 -0.37516,0.0945 h -0.2644 -0.26441 l -0.16377,-0.0876 -0.16377,-0.0876 v -0.92997 -0.92996 l 0.23284,0.0523 0.23283,0.0524 0.18673,0.2036 0.18672,0.2036 0.0555,0.296 0.0555,0.296 h 0.0752 0.0752 v -1.22767 -1.22766 h -0.0752 -0.0752 l -0.0555,0.296 -0.0555,0.296 -0.18672,0.20881 -0.18673,0.20881 -0.23283,0.0547 -0.23284,0.0547 v -0.98284 -0.98285 h 0.38585 0.38584 l 0.37835,0.0953 0.37836,0.0953 0.17303,0.21998 0.17304,0.21999 0.047,0.23508 0.047,0.23508 h 0.11642 0.11642 v -0.71967 -0.71967 l -2.0955,0.007 -2.095502,0.007 0.338666,0.10204 0.338667,0.10204 v 2.1959 2.19591 l -0.338667,0.10204 -0.338666,0.10204 2.132132,0.007 2.13212,0.007 z m 2.08616,0.0635 -0.127,-0.0821 -0.14519,-0.001 -0.14518,-10e-4 -0.088,-0.1644 -0.088,-0.16439 0.15097,-0.40711 0.15097,-0.4071 0.85254,-0.024 0.85253,-0.024 0.18217,0.47602 0.18216,0.47602 v 0.11105 0.11106 l -0.3175,0.0843 -0.3175,0.0843 1.22447,0.009 1.22447,0.009 -0.27128,-0.23283 -0.27127,-0.23283 -0.96147,-2.19704 -0.96147,-2.19703 -0.0764,-0.0227 -0.0764,-0.0227 -0.58719,1.33076 -0.58718,1.33077 -0.44257,0.94924 -0.44258,0.94923 -0.28257,0.17228 -0.28258,0.17228 0.889,-9.8e-4 0.889,-9.8e-4 z m -0.0847,-1.65429 v -0.0456 l 0.30812,-0.67404 0.30812,-0.67405 h 0.0543 0.0543 l 0.0931,0.23283 0.0931,0.23283 0.22074,0.48684 0.22075,0.48683 h -0.67627 -0.67627 z m 7.36695,1.51982 0.38195,-0.17679 0.28792,-0.28792 0.28792,-0.28792 0.17323,-0.38195 0.17322,-0.38195 0.002,-0.67734 0.002,-0.67733 -0.18854,-0.38563 -0.18854,-0.38563 -0.27562,-0.28365 -0.27562,-0.28364 -0.381,-0.17739 -0.381,-0.17739 -1.60866,-0.0174 -1.60867,-0.0174 0.23825,0.0751 0.23824,0.0751 0.12159,0.10091 0.12159,0.1009 v 2.0536 2.0536 l -0.12159,0.10091 -0.12159,0.10091 -0.23824,0.0751 -0.23825,0.0751 1.60867,-0.0174 1.60866,-0.0175 z m -1.54611,-0.12332 -0.14817,-0.0893 v -2.07974 -2.07974 l 0.40217,0.0567 0.40216,0.0567 0.21115,0.15215 0.21114,0.15216 0.21219,0.41232 0.21219,0.41233 v 0.97593 0.97592 l -0.19466,0.39516 -0.19466,0.39515 -0.19513,0.12785 -0.19513,0.12786 -0.28754,0.0489 -0.28755,0.0489 z m -13.778552,-5.21068 0.38195,-0.17679 0.28792,-0.28792 0.28792,-0.28792 0.173225,-0.38195 0.173225,-0.38195 0.0021,-0.67734 0.0021,-0.67733 -0.188542,-0.38563 -0.188541,-0.38563 -0.275618,-0.28365 -0.275618,-0.28364 -0.381,-0.17739 -0.381,-0.17739 -1.608667,-0.0174 -1.608666,-0.0174 0.238246,0.0751 0.238246,0.0751 0.121587,0.10091 0.121587,0.1009 v 2.0536 2.0536 l -0.121587,0.10091 -0.121587,0.10091 -0.238246,0.0751 -0.238246,0.0751 1.608666,-0.0174 1.608667,-0.0174 z m -1.546117,-0.12332 -0.148167,-0.0893 v -2.07974 -2.07974 l 0.402167,0.0567 0.402167,0.0567 0.211142,0.15215 0.211142,0.15216 0.212191,0.41232 0.212191,0.41233 v 0.97593 0.97592 l -0.194657,0.39516 -0.194658,0.39515 -0.195131,0.12786 -0.195131,0.12785 -0.287544,0.0489 -0.287545,0.0489 z m 7.502339,0.19429 0.0419,-0.14817 0.0546,-0.46567 0.0546,-0.46566 0.0419,-0.14817 0.0419,-0.14817 h -0.12352 -0.12353 l -0.0537,0.21381 -0.0537,0.2138 -0.29518,0.32673 -0.29519,0.32673 -0.37516,0.0945 -0.37516,0.0945 h -0.2644 -0.26441 l -0.16377,-0.0876 -0.16377,-0.0876 v -0.92996 -0.92997 l 0.23284,0.0523 0.23283,0.0524 0.18673,0.2036 0.18672,0.2036 0.0555,0.296 0.0555,0.296 h 0.0752 0.0752 v -1.22767 -1.22766 h -0.0752 -0.0752 l -0.0555,0.296 -0.0555,0.296 -0.18672,0.20881 -0.18673,0.20881 -0.23283,0.0547 -0.23284,0.0547 v -0.98284 -0.98285 h 0.38585 0.38584 l 0.37835,0.0953 0.37836,0.0953 0.17303,0.21998 0.17304,0.21999 0.047,0.23508 0.047,0.23508 h 0.11642 0.11642 v -0.71967 -0.71967 l -2.0955,0.007 -2.095502,0.007 0.338666,0.10204 0.338667,0.10204 v 2.1959 2.19591 l -0.338667,0.10204 -0.338666,0.10204 2.132132,0.007 2.13212,0.007 z m 2.08616,0.0635 -0.127,-0.0821 -0.14519,-10e-4 -0.14518,-0.001 -0.088,-0.1644 -0.088,-0.16439 0.15097,-0.40711 0.15097,-0.4071 0.85254,-0.024 0.85253,-0.024 0.18217,0.47602 0.18216,0.47602 v 0.11105 0.11106 l -0.3175,0.0843 -0.3175,0.0843 1.22447,0.009 1.22447,0.009 -0.27128,-0.23283 -0.27127,-0.23283 -0.96147,-2.19704 -0.96147,-2.19703 -0.0764,-0.0227 -0.0764,-0.0227 -0.58719,1.33076 -0.58718,1.33077 -0.44257,0.94924 -0.44258,0.94924 -0.28257,0.17227 -0.28258,0.17228 0.889,-9.8e-4 0.889,-9.8e-4 z m -0.0847,-1.65429 v -0.0456 l 0.30812,-0.67404 0.30812,-0.67405 h 0.0543 0.0543 l 0.0931,0.23283 0.0931,0.23283 0.22074,0.48684 0.22075,0.48683 h -0.67627 -0.67627 z m 7.36695,1.51982 0.38195,-0.17679 0.28792,-0.28792 0.28792,-0.28792 0.17323,-0.38195 0.17322,-0.38195 0.002,-0.67734 0.002,-0.67733 -0.18854,-0.38563 -0.18854,-0.38563 -0.27562,-0.28365 -0.27562,-0.28364 -0.381,-0.17739 -0.381,-0.17739 -1.60866,-0.0174 -1.60867,-0.0174 0.23825,0.0751 0.23824,0.0751 0.12159,0.10091 0.12159,0.1009 v 2.0536 2.0536 l -0.12159,0.10091 -0.12159,0.10091 -0.23824,0.0751 -0.23825,0.0751 1.60867,-0.0174 1.60866,-0.0174 z m -1.54611,-0.12332 -0.14817,-0.0893 v -2.07974 -2.07974 l 0.40217,0.0567 0.40216,0.0567 0.21115,0.15215 0.21114,0.15216 0.21219,0.41232 0.21219,0.41233 v 0.97593 0.97592 l -0.19466,0.39516 -0.19466,0.39515 -0.19513,0.12786 -0.19513,0.12785 -0.28754,0.0489 -0.28755,0.0489 z m -13.947885,-5.21068 0.38195,-0.17679 0.28792,-0.28792 0.28792,-0.28792 0.173225,-0.38195 0.173225,-0.38195 0.0021,-0.67734 0.0021,-0.677329 -0.188542,-0.385632 -0.188541,-0.385632 -0.275618,-0.283644 -0.275619,-0.283645 -0.381,-0.17739 -0.381,-0.17739 -1.608666,-0.01744 -1.608667,-0.01745 0.238247,0.07507 0.238246,0.07507 0.121587,0.100909 0.121587,0.100908 v 2.053595 2.0536 l -0.121587,0.10091 -0.121587,0.10091 -0.238246,0.0751 -0.238247,0.0751 1.608667,-0.0174 1.608666,-0.0174 z m -1.546117,-0.12332 -0.148167,-0.0893 v -2.07974 -2.079742 l 0.402167,0.05671 0.402166,0.05671 0.211143,0.152153 0.211142,0.152153 0.212191,0.412327 0.212191,0.412328 v 0.975931 0.97592 l -0.194658,0.39516 -0.194657,0.39515 -0.195131,0.12786 -0.195131,0.12785 -0.287545,0.0489 -0.287545,0.0489 z m 7.502332,0.19429 0.0419,-0.14817 0.0546,-0.46567 0.0546,-0.46566 0.0419,-0.14817 0.0419,-0.14817 h -0.12353 -0.12352 l -0.0537,0.21381 -0.0537,0.2138 -0.29519,0.32673 -0.29518,0.32673 -0.37516,0.0945 -0.37516,0.0945 h -0.26441 -0.2644 l -0.16377,-0.0876 -0.16377,-0.0876 v -0.92996 -0.92997 l 0.23283,0.0523 0.23284,0.0524 0.18672,0.2036 0.18673,0.2036 0.0555,0.296 0.0555,0.296 h 0.0752 0.0752 v -1.22767 -1.227662 h -0.0752 -0.0752 l -0.0555,0.295999 -0.0555,0.295999 -0.18673,0.208814 -0.18672,0.20881 -0.23284,0.0547 -0.23283,0.0547 v -0.982844 -0.982845 h 0.38584 0.38584 l 0.37836,0.09527 0.37835,0.09527 0.17304,0.219982 0.17304,0.219981 0.047,0.235081 0.047,0.235081 h 0.11642 0.11641 v -0.719667 -0.719667 l -2.0955,0.0065 -2.095496,0.0065 0.338667,0.102039 0.338667,0.102039 v 2.1959 2.19591 l -0.338667,0.10204 -0.338667,0.10204 2.132126,0.007 2.13213,0.006 z m 2.08617,0.0635 -0.127,-0.0821 -0.14519,-0.001 -0.14519,-0.001 -0.088,-0.1644 -0.088,-0.16439 0.15097,-0.40711 0.15097,-0.4071 0.85254,-0.024 0.85253,-0.024 0.18216,0.47602 0.18217,0.47602 v 0.11105 0.11106 l -0.3175,0.0843 -0.3175,0.0843 1.22447,0.009 1.22446,0.009 -0.27127,-0.23283 -0.27127,-0.23283 -0.96147,-2.19704 -0.96147,-2.197034 -0.0764,-0.02273 -0.0764,-0.02273 -0.58718,1.330765 -0.58718,1.330769 -0.44258,0.94924 -0.44257,0.94924 -0.28258,0.17227 -0.28257,0.17228 0.889,-9.8e-4 0.889,-9.8e-4 z m -0.0847,-1.65429 v -0.0456 l 0.30812,-0.67404 0.30811,-0.674052 h 0.0543 0.0543 l 0.0931,0.232832 0.0931,0.23283 0.22074,0.48684 0.22074,0.48683 h -0.67626 -0.67627 z m 7.36695,1.51982 0.38195,-0.17679 0.28792,-0.28792 0.28792,-0.28792 0.17323,-0.38195 0.17322,-0.38195 0.002,-0.67734 0.002,-0.677329 -0.18854,-0.385632 -0.18854,-0.385632 -0.27562,-0.283644 -0.27562,-0.283645 -0.381,-0.17739 -0.381,-0.17739 -1.60867,-0.01744 -1.60866,-0.01745 0.23824,0.07507 0.23825,0.07507 0.12159,0.100909 0.12158,0.100908 v 2.053595 2.0536 l -0.12158,0.10091 -0.12159,0.10091 -0.23825,0.0751 -0.23824,0.0751 1.60866,-0.0174 1.60867,-0.0174 z m -1.54612,-0.12332 -0.14816,-0.0893 v -2.07974 -2.079742 l 0.40216,0.05671 0.40217,0.05671 0.21114,0.152153 0.21114,0.152153 0.2122,0.412327 0.21219,0.412328 v 0.975931 0.97592 l -0.19466,0.39516 -0.19466,0.39515 -0.19513,0.12786 -0.19513,0.12785 -0.28754,0.0489 -0.28755,0.0489 z"
         id="path3" /></g></g></svg>
